<svg width="25" height="22" viewBox="0 0 25 22" fill="none" xmlns="http://www.w3.org/2000/svg">
<g clip-path="url(#clip0_1496_2731)">
<path fill-rule="evenodd" clip-rule="evenodd" d="M9.91908 13.2619L16.6713 10.2857L9.91908 7.27383V13.2619ZM12.5 3C17.7594 3 21.2471 3.21426 21.2471 3.21426C21.7354 3.26188 22.8096 3.26193 23.7583 4.11908C23.7583 4.11908 24.5256 4.76189 24.7488 6.23809C25.0139 7.96428 24.9999 9.6905 24.9999 9.6905V11.3095C24.9999 11.3095 25.0139 13.0357 24.7488 14.7619C24.5256 16.2262 23.7583 16.881 23.7583 16.881C22.8096 17.7262 21.7354 17.7262 21.2471 17.7738C21.2471 17.7738 17.7594 18 12.5 18C5.99894 17.9524 4.00399 17.7857 4.00399 17.7857C3.44596 17.7024 2.19037 17.7262 1.24172 16.881C1.24172 16.881 0.474421 16.2262 0.251208 14.7619C-0.0138554 13.0357 0.000127355 11.3095 0.000127355 11.3095V9.6905C0.000127355 9.6905 -0.0138554 7.96428 0.251208 6.23809C0.474421 4.76189 1.24172 4.11908 1.24172 4.11908C2.19037 3.26193 3.26456 3.26188 3.75284 3.21426C3.75284 3.21426 7.24056 3 12.5 3Z" fill="#808080"/>
</g>
<defs>
<clipPath id="clip0_1496_2731">
<rect width="25" height="22" fill="white"/>
</clipPath>
</defs>
</svg>
